<svg width="181" height="31" viewBox="0 0 181 31" fill="none" xmlns="http://www.w3.org/2000/svg">
<path d="M163.002 21.0307H162.901C162.465 21.0307 162.089 21.2816 161.907 21.6469C161.909 21.6413 161.909 21.6385 161.912 21.6329C161.912 21.6329 161.884 21.6748 161.856 21.7584C161.859 21.7528 161.862 21.75 161.864 21.7445C161.859 21.7556 161.856 21.7668 161.85 21.7807C161.853 21.7751 161.853 21.7668 161.856 21.7612C161.755 21.9675 161.592 22.2045 161.505 22.3244C160.674 23.4843 159.321 24.2733 157.841 24.2733C155.409 24.2733 153.32 22.1487 153.32 19.737C153.32 17.1301 155.409 15.1757 157.841 15.1757C159.416 15.1757 160.845 15.9982 161.659 17.2835C161.735 17.4034 161.775 17.4759 161.791 17.5093C161.777 17.4787 161.763 17.4424 161.752 17.4062C161.898 17.8439 162.317 18.1645 162.808 18.1645H162.853C163.465 18.1645 163.965 17.6683 163.965 17.0604V17.0075C163.965 16.7454 163.872 16.5056 163.718 16.3188C162.552 14.4424 160.435 13.1515 157.844 13.1515C153.856 13.1515 150.99 16.1933 150.99 19.7398C150.99 23.3365 153.71 26.303 157.844 26.303C160.716 26.303 162.906 24.8672 163.976 22.7844C164.066 22.6255 164.119 22.4415 164.119 22.2463V22.1376C164.114 21.527 163.614 21.0307 163.002 21.0307Z" fill="white"/>
<path d="M180.994 19.7609C180.994 19.7357 180.997 19.7132 180.997 19.688C180.997 16.1701 178.054 13.1515 173.966 13.1515C169.875 13.1515 166.933 16.1673 166.933 19.688C166.933 23.2564 169.726 26.1992 173.966 26.1992C175.91 26.1992 177.546 25.5793 178.753 24.5665V25.2089C178.753 25.2146 178.75 25.2202 178.75 25.2258C178.75 25.2314 178.753 25.237 178.753 25.2426V25.251C178.767 25.8345 179.261 26.303 179.875 26.303C180.486 26.303 180.982 25.8345 180.997 25.251V25.2426C180.997 25.237 181 25.2314 181 25.2258C181 25.2202 180.997 25.2146 180.997 25.2089V19.7609H180.994ZM173.963 24.1906C171.471 24.1906 169.326 22.0838 169.326 19.6908C169.326 17.1043 171.471 15.1658 173.963 15.1658C176.456 15.1658 178.601 17.1043 178.601 19.6908C178.604 22.0838 176.459 24.1906 173.963 24.1906Z" fill="white"/>
<path d="M148.176 14.2256C148.176 13.6342 147.548 13.1515 146.769 13.1515C145.991 13.1515 145.363 13.6314 145.363 14.2256C145.363 14.2312 145.366 14.2368 145.366 14.2424V25.215C145.366 25.2206 145.363 25.2261 145.363 25.2317C145.363 25.2373 145.366 25.2429 145.366 25.2485V25.2568C145.385 25.8371 146.002 26.303 146.769 26.303C147.537 26.303 148.154 25.8371 148.173 25.2568V25.2485C148.173 25.2429 148.176 25.2373 148.176 25.2317C148.176 25.2261 148.173 25.2206 148.173 25.215V14.2424C148.173 14.2368 148.176 14.2312 148.176 14.2256Z" fill="white"/>
<path d="M141.611 19.0797C141.611 19.077 141.611 19.0714 141.611 19.0686C141.611 19.049 141.608 19.0323 141.608 19.0128V18.8453H141.599C141.483 15.7053 138.911 13.1515 135.047 13.1515C131.182 13.1515 128.613 15.7053 128.494 18.8453H128.482V25.2536C128.482 25.8341 128.987 26.303 129.605 26.303C130.223 26.303 130.728 25.8313 130.728 25.2536V19.063C130.728 16.8888 132.714 14.9797 135.044 14.9797C137.37 14.9797 139.356 16.8915 139.356 19.0686V25.2536C139.356 25.8341 139.861 26.303 140.479 26.303C141.098 26.303 141.602 25.8313 141.602 25.2536V19.3337C141.602 19.3254 141.605 19.317 141.605 19.3086C141.605 19.3002 141.602 19.2947 141.602 19.2891L141.611 19.0797Z" fill="white"/>
<path d="M76.9016 19.6872C76.9016 16.169 73.9596 13.1515 69.8679 13.1515C65.7762 13.1515 62.8342 16.169 62.8342 19.6872C62.8342 23.2551 65.6263 26.1979 69.8679 26.1979C71.81 26.1979 73.4495 25.5784 74.654 24.5661V25.2078C74.654 25.2133 74.6511 25.2188 74.6511 25.2244C74.6511 25.2299 74.654 25.2354 74.654 25.241V25.2493C74.6684 25.8328 75.164 26.303 75.7749 26.303C76.3858 26.303 76.8814 25.8328 76.8958 25.2493V25.241C76.8958 25.2354 76.8987 25.2299 76.8987 25.2244C76.8987 25.2188 76.8958 25.2133 76.8958 25.2078V19.7563C76.9016 19.7342 76.9016 19.7093 76.9016 19.6872ZM69.8679 24.1872C67.3725 24.1872 65.2287 22.0796 65.2287 19.6872C65.2287 17.1011 67.3725 15.1623 69.8679 15.1623C72.3632 15.1623 74.507 17.1011 74.507 19.6872C74.507 22.0796 72.3632 24.1872 69.8679 24.1872Z" fill="white"/>
<path d="M59.8733 24.2679H59.8703H59.1718C58.4194 24.2679 57.6669 23.7836 57.6669 22.3532V9.57987C57.6669 9.56867 57.6699 9.55748 57.6699 9.54628C57.6699 9.53508 57.6669 9.52389 57.6669 9.51269V9.4791H57.6639C57.6249 8.90803 57.1243 8.45454 56.5008 8.45454C55.8802 8.45454 55.3766 8.90803 55.3376 9.4791H55.3316V22.5239C55.3316 25.1637 56.7586 26.303 58.914 26.303H59.8733V26.2918C60.4729 26.2918 60.9585 25.8383 60.9585 25.2785C60.9555 24.7214 60.4699 24.2679 59.8733 24.2679Z" fill="white"/>
<path d="M92.2364 12.323C91.6951 12.0607 91.0421 12.2793 90.7745 12.8156L85.8269 22.7789L80.847 12.8156C80.5794 12.2822 79.9264 12.0607 79.3851 12.3259C78.8439 12.5912 78.6233 13.2383 78.891 13.7746L84.8504 25.7026C85.0357 26.0698 85.4122 26.303 85.8269 26.303C86.2417 26.303 86.6211 26.0698 86.8035 25.6996L92.7276 13.7717C93.0011 13.2354 92.7776 12.5883 92.2364 12.323Z" fill="white"/>
<path d="M101.855 13.1515C97.7873 13.1515 94.7202 15.9784 94.7202 19.7273C94.7202 23.6197 97.8366 26.303 102.299 26.303C104.278 26.303 105.976 25.7896 107.343 24.7737C107.479 24.666 107.833 24.3485 107.833 24.0062C107.833 23.4127 107.206 22.8081 106.591 22.8081C106.257 22.8081 106.095 22.8716 105.883 23.0069C104.876 23.6584 103.771 24.2961 102.357 24.2961C100.013 24.2961 98.0397 23.1587 97.5435 21.1738L97.3752 20.5002H107.343C108.207 20.5002 108.788 19.973 108.788 19.1917C108.79 16.8562 106.907 13.1515 101.855 13.1515ZM97.3839 18.5098C97.8105 16.4118 99.6589 15.1585 101.754 15.1585C103.858 15.1585 105.808 16.4422 106.141 18.5098H97.3839Z" fill="white"/>
<path d="M118.306 8.45455C117.917 8.45455 117.543 8.23804 117.351 7.85614C117.075 7.31187 117.278 6.63528 117.807 6.34961L124.091 2.94563C124.616 2.65996 125.269 2.87046 125.545 3.41774C125.821 3.96202 125.618 4.6386 125.089 4.92427L118.806 8.32825C118.646 8.41546 118.475 8.45455 118.306 8.45455Z" fill="white"/>
<path d="M12.6606 19.7273C13.4375 19.7273 14.0674 19.0964 14.0674 18.3182C14.0674 17.54 13.4375 16.9091 12.6606 16.9091C11.8837 16.9091 11.2539 17.54 11.2539 18.3182C11.2539 19.0964 11.8837 19.7273 12.6606 19.7273Z" fill="white"/>
<path d="M13.1295 31C5.88978 31 0 25.1164 0 17.8876C0 12.6045 3.14607 7.86413 8.01826 5.80575C8.56058 5.57479 9.18747 5.82884 9.41489 6.37159C9.64524 6.91433 9.39157 7.53791 8.84924 7.76886C4.77013 9.49236 2.13431 13.4648 2.13431 17.8876C2.13431 23.9443 7.06773 28.8694 13.1295 28.8694C19.1913 28.8694 24.1248 23.9415 24.1248 17.8876C24.1248 13.3724 21.416 9.37111 17.2203 7.69091C16.6751 7.47151 16.4097 6.85082 16.6284 6.30519C16.8471 5.75956 17.4681 5.49396 18.0163 5.71337C23.0226 7.71978 26.2591 12.4977 26.2591 17.8876C26.2591 25.1193 20.3693 31 13.1295 31Z" fill="white"/>
<path d="M13.35 13.1515C12.7093 13.1515 12.1917 12.6508 12.1917 12.0326V1.11888C12.1917 0.500716 12.7093 0 13.35 0H17.5982C18.2389 0 18.7565 0.500716 18.7565 1.11888C18.7565 1.73705 18.2389 2.23777 17.5982 2.23777H14.5115V12.0326C14.5083 12.6508 13.9876 13.1515 13.35 13.1515Z" fill="white"/>
<path d="M13.1295 24.4242C9.50917 24.4242 6.56477 21.4743 6.56477 17.8485C6.56477 14.2227 9.50917 11.2727 13.1295 11.2727C16.7499 11.2727 19.6943 14.2227 19.6943 17.8485C19.6943 21.4743 16.7499 24.4242 13.1295 24.4242ZM13.1295 13.3583C10.6577 13.3583 8.64705 15.3742 8.64705 17.8485C8.64705 20.3256 10.6577 22.3387 13.1295 22.3387C15.6013 22.3387 17.612 20.3227 17.612 17.8485C17.6149 15.3742 15.6013 13.3583 13.1295 13.3583Z" fill="white"/>
<path d="M43.9873 26.303C38.8661 26.303 34.6995 22.0888 34.6995 16.9091C34.6995 11.7294 38.8661 7.51515 43.9873 7.51515C47.2443 7.51515 50.3047 9.27581 51.9724 12.1099C52.2672 12.6097 52.1044 13.2572 51.6102 13.5553C51.1161 13.8535 50.4759 13.6888 50.1839 13.189C48.8896 10.991 46.5143 9.6251 43.9873 9.6251C40.0145 9.6251 36.7828 12.8937 36.7828 16.9119C36.7828 20.9302 40.0145 24.1988 43.9873 24.1988C46.7838 24.1988 49.3529 22.5403 50.5293 19.9704C50.7707 19.4422 51.3884 19.215 51.9135 19.4564C52.4357 19.7006 52.6631 20.3253 52.4217 20.8535C50.9027 24.1647 47.5952 26.303 43.9873 26.303Z" fill="white"/>
<path d="M125.622 20.2285C125.622 23.946 122.508 26.9719 118.681 26.9719C114.854 26.9719 111.739 23.946 111.739 20.2285V10.6405C111.739 10.0688 112.215 9.60589 112.804 9.60589C113.392 9.60589 113.869 10.0688 113.869 10.6405V20.2285C113.869 22.8054 116.028 24.9026 118.681 24.9026C121.333 24.9026 123.492 22.8054 123.492 20.2285V10.6405C123.492 10.0688 123.969 9.60589 124.557 9.60589C125.146 9.60589 125.622 10.0688 125.622 10.6405V20.2285Z" fill="white"/>
</svg>
