<?xml version="1.0" encoding="UTF-8"?>
<svg width="449px" height="91px" viewBox="0 0 449 91" version="1.1" xmlns="http://www.w3.org/2000/svg" xmlns:xlink="http://www.w3.org/1999/xlink">
    <title>logo_bono</title>
    <g id="Page-1" stroke="none" stroke-width="1" fill="none" fill-rule="evenodd">
        <g id="logo_bono" transform="translate(0.950000, 0.167495)" fill-rule="nonzero">
            <g id="Group" transform="translate(0.000000, 39.312505)">
                <path d="M50.42,37.36 C49.1,39.49 47.65,41.42 46.07,43.15 C44.48,44.89 42.7,46.37 40.73,47.58 C38.76,48.8 36.57,49.75 34.16,50.42 C31.75,51.1 29.1,51.44 26.2,51.44 C22.57,51.44 19.17,50.76 15.99,49.4 C12.81,48.04 10.04,46.2 7.65,43.89 C5.26,41.58 3.4,38.85 2.04,35.72 C0.68,32.59 2.84217094e-14,29.26 2.84217094e-14,25.72 C2.84217094e-14,22.18 0.68,18.85 2.04,15.72 C3.4,12.59 5.27,9.87 7.65,7.55 C10.03,5.24 12.81,3.4 15.99,2.04 C19.16,0.68 22.57,0 26.2,0 C29.19,0 31.89,0.34 34.3,1.02 C36.7,1.7 38.88,2.65 40.83,3.88 C42.78,5.11 44.54,6.59 46.1,8.34 C47.67,10.09 49.1,12 50.42,14.09 C50.65,14.45 50.69,14.84 50.56,15.25 C50.43,15.66 50.15,15.95 49.74,16.13 L40.08,19.94 C39.63,20.12 39.17,20.12 38.72,19.94 C38.27,19.76 37.93,19.49 37.7,19.12 C36.38,17.03 34.8,15.43 32.94,14.32 C31.08,13.21 28.83,12.65 26.2,12.65 C24.48,12.65 22.85,13.01 21.33,13.74 C19.81,14.47 18.48,15.43 17.35,16.64 C16.22,17.85 15.33,19.24 14.7,20.84 C14.06,22.43 13.75,24.07 13.75,25.75 C13.75,27.48 14.07,29.13 14.7,30.7 C15.33,32.27 16.22,33.65 17.35,34.83 C18.48,36.01 19.81,36.97 21.33,37.7 C22.85,38.43 24.47,38.79 26.2,38.79 C28.69,38.79 30.95,38.19 32.97,36.99 C34.99,35.79 36.59,34.23 37.77,32.33 C38,31.97 38.33,31.7 38.76,31.51 C39.19,31.33 39.63,31.33 40.09,31.51 L49.75,35.32 C50.16,35.5 50.43,35.79 50.57,36.17 C50.7,36.56 50.65,36.95 50.42,37.36 Z" id="Path" fill="#6D7983"></path>
                <path d="M89.39,39.68 L89.39,48.93 C89.39,49.38 89.23,49.77 88.91,50.09 C88.59,50.41 88.21,50.57 87.75,50.57 L53.79,50.57 C53.29,50.57 52.89,50.41 52.6,50.09 C52.3,49.77 52.16,49.39 52.16,48.93 L52.16,2.38 C52.16,1.93 52.31,1.54 52.6,1.22 C52.89,0.9 53.29,0.74 53.79,0.74 L64,0.74 C64.45,0.74 64.84,0.9 65.16,1.22 C65.48,1.54 65.64,1.92 65.64,2.38 L65.64,36.4 C65.64,36.85 65.79,37.24 66.08,37.56 C66.37,37.88 66.77,38.04 67.27,38.04 L87.75,38.04 C88.2,38.04 88.59,38.2 88.91,38.52 C89.23,38.84 89.39,39.22 89.39,39.68 Z" id="Path" fill="#6D7983"></path>
                <path d="M107.22,2.32 C107.4,1.91 107.71,1.56 108.14,1.27 C108.57,0.98 109.04,0.83 109.54,0.83 L119.07,0.83 C119.52,0.83 119.97,0.98 120.4,1.27 C120.83,1.57 121.14,1.92 121.32,2.32 L141.19,48.59 C141.37,49 141.34,49.43 141.09,49.88 C140.84,50.33 140.35,50.56 139.63,50.56 L127.99,50.56 C127.49,50.56 127.03,50.41 126.59,50.12 C126.16,49.83 125.83,49.47 125.6,49.07 L123.76,44.99 C123.53,44.58 123.2,44.23 122.77,43.94 C122.34,43.65 121.9,43.5 121.44,43.5 L107.08,43.5 C106.58,43.5 106.12,43.65 105.68,43.94 C105.25,44.24 104.94,44.59 104.76,44.99 L102.85,49.07 C102.67,49.48 102.36,49.83 101.93,50.12 C101.5,50.42 101.06,50.56 100.6,50.56 L88.9,50.56 C88.67,50.56 88.44,50.52 88.19,50.42 C87.94,50.33 87.74,50.19 87.58,50.01 C87.42,49.83 87.32,49.6 87.27,49.33 C87.23,49.06 87.29,48.74 87.47,48.38 L107.22,2.32 Z M111.24,31.92 L117.3,31.92 C117.75,31.92 118.08,31.77 118.29,31.48 C118.49,31.19 118.48,30.83 118.26,30.43 C117.81,29.3 117.26,27.97 116.63,26.45 C115.99,24.93 115.4,23.51 114.86,22.2 C114.68,21.79 114.47,21.59 114.25,21.59 C114.02,21.59 113.82,21.79 113.64,22.2 L110.24,30.43 C110.06,30.84 110.06,31.19 110.24,31.48 C110.4,31.77 110.74,31.92 111.24,31.92 Z" id="Shape" fill="#6D7983"></path>
                <path d="M147.36,33.48 C149.81,35.07 152.24,36.31 154.64,37.22 C157.04,38.13 159.29,38.58 161.38,38.58 C163.38,38.58 164.9,38.3 165.94,37.73 C166.98,37.16 167.5,36.31 167.5,35.18 C167.5,34.59 167.27,34.13 166.82,33.78 C166.37,33.44 165.76,33.16 165.02,32.93 C164.27,32.7 163.4,32.52 162.4,32.39 C161.4,32.25 160.38,32.07 159.34,31.85 C158.34,31.67 157.17,31.45 155.84,31.2 C154.5,30.95 153.13,30.59 151.72,30.11 C150.31,29.63 148.92,29.03 147.53,28.31 C146.15,27.58 144.91,26.65 143.82,25.52 C142.73,24.39 141.86,23.04 141.2,21.47 C140.54,19.9 140.21,18.06 140.21,15.92 C140.21,12.79 140.82,10.2 142.05,8.16 C143.27,6.12 144.83,4.5 146.71,3.29 C148.59,2.09 150.69,1.25 153,0.77 C155.31,0.29 157.56,0.06 159.74,0.06 C163.55,0.06 166.96,0.62 169.98,1.73 C173,2.84 175.89,4.46 178.66,6.6 C179.02,6.92 179.23,7.3 179.27,7.76 C179.31,8.21 179.2,8.62 178.93,8.99 L173.62,16.54 C173.35,16.9 172.98,17.13 172.53,17.22 C172.08,17.31 171.67,17.22 171.31,16.95 C169,15.5 166.84,14.47 164.85,13.85 C162.85,13.24 161.02,12.93 159.34,12.93 C158.84,12.93 158.26,12.94 157.61,12.96 C156.95,12.98 156.33,13.07 155.74,13.23 C155.15,13.39 154.66,13.65 154.28,14.01 C153.89,14.37 153.7,14.87 153.7,15.51 C153.7,16.15 154.18,16.71 155.13,17.21 C156.08,17.71 157.17,18.14 158.4,18.5 C159.63,18.86 160.8,19.15 161.94,19.35 C163.07,19.56 163.8,19.68 164.12,19.73 C165.75,20.05 167.54,20.51 169.5,21.12 C171.45,21.73 173.28,22.64 174.98,23.84 C176.68,25.04 178.11,26.61 179.27,28.54 C180.43,30.47 181.01,32.88 181.01,35.79 C181.01,38.51 180.53,40.86 179.58,42.83 C178.63,44.8 177.3,46.43 175.6,47.7 C173.9,48.97 171.86,49.91 169.48,50.52 C167.1,51.13 164.46,51.44 161.55,51.44 C159.19,51.44 156.99,51.25 154.95,50.86 C152.91,50.47 151,49.94 149.23,49.26 C147.46,48.58 145.82,47.77 144.3,46.84 C142.78,45.91 141.38,44.92 140.11,43.88 C139.75,43.61 139.54,43.23 139.5,42.76 C139.45,42.28 139.57,41.87 139.84,41.5 L145.08,33.95 C145.35,33.59 145.71,33.36 146.17,33.27 C146.59,33.19 146.99,33.26 147.36,33.48 Z" id="Path" fill="#6D7983"></path>
                <path d="M197.38,14.9 L197.38,17.76 C197.38,18.21 197.54,18.6 197.86,18.92 C198.18,19.24 198.56,19.4 199.02,19.4 L217.46,19.4 C217.91,19.4 218.3,19.56 218.62,19.88 C218.94,20.2 219.1,20.58 219.1,21.04 L219.1,30.43 C219.1,30.88 218.94,31.27 218.62,31.59 C218.3,31.91 217.92,32.07 217.46,32.07 L199.02,32.07 C198.57,32.07 198.18,32.23 197.86,32.55 C197.54,32.87 197.38,33.25 197.38,33.71 L197.38,36.3 C197.38,36.75 197.54,37.14 197.86,37.46 C198.18,37.78 198.56,37.94 199.02,37.94 L220.18,37.94 C220.63,37.94 221.02,38.1 221.34,38.42 C221.66,38.74 221.82,39.12 221.82,39.58 L221.82,48.97 C221.82,49.42 221.66,49.81 221.34,50.13 C221.02,50.45 220.64,50.61 220.18,50.61 L185.54,50.61 C185.09,50.61 184.7,50.45 184.38,50.13 C184.06,49.81 183.9,49.43 183.9,48.97 L183.9,2.42 C183.9,1.97 184.06,1.58 184.38,1.26 C184.7,0.94 185.08,0.78 185.54,0.78 L220.18,0.78 C220.63,0.78 221.02,0.94 221.34,1.26 C221.66,1.58 221.82,1.96 221.82,2.42 L221.82,11.67 C221.82,12.12 221.66,12.51 221.34,12.83 C221.02,13.15 220.64,13.31 220.18,13.31 L199.02,13.31 C198.57,13.31 198.18,13.47 197.86,13.79 C197.54,14.07 197.38,14.45 197.38,14.9 Z" id="Path" fill="#6D7983"></path>
                <path d="M282.01,2.45 L282.01,48.93 C282.01,49.38 281.85,49.77 281.54,50.09 C281.23,50.41 280.84,50.57 280.39,50.57 L270.17,50.57 C269.72,50.57 269.34,50.41 269.02,50.09 C268.7,49.77 268.55,49.39 268.55,48.93 L268.55,27.02 C268.55,26.57 268.34,26.32 267.93,26.27 C267.52,26.23 267.18,26.38 266.91,26.75 L255.45,45.19 C255.22,45.55 254.86,45.73 254.36,45.73 C253.86,45.73 253.47,45.55 253.2,45.19 L241.74,26.75 C241.51,26.39 241.2,26.23 240.78,26.27 C240.37,26.32 240.17,26.57 240.17,27.02 L240.17,48.93 C240.17,49.38 240.01,49.77 239.7,50.09 C239.38,50.41 239,50.57 238.55,50.57 L228.33,50.57 C227.88,50.57 227.49,50.41 227.18,50.09 C226.87,49.77 226.71,49.39 226.71,48.93 L226.71,2.45 C226.71,2 226.87,1.61 227.18,1.29 C227.5,0.97 227.88,0.81 228.33,0.81 L237.81,0.81 C238.26,0.81 238.74,0.95 239.23,1.22 C239.73,1.49 240.09,1.81 240.31,2.17 L253.41,21.36 C253.68,21.72 254,21.9 254.37,21.9 C254.74,21.9 255.03,21.72 255.26,21.36 L268.36,2.17 C268.63,1.81 269.01,1.49 269.51,1.22 C270.01,0.95 270.48,0.81 270.93,0.81 L280.41,0.81 C280.86,0.81 281.24,0.97 281.56,1.29 C281.85,1.61 282.01,2 282.01,2.45 Z" id="Path" fill="#1A65AA"></path>
                <path d="M301.63,14.9 L301.63,17.76 C301.63,18.21 301.79,18.6 302.11,18.92 C302.43,19.24 302.81,19.4 303.27,19.4 L321.71,19.4 C322.16,19.4 322.55,19.56 322.87,19.88 C323.19,20.2 323.35,20.58 323.35,21.04 L323.35,30.43 C323.35,30.88 323.19,31.27 322.87,31.59 C322.55,31.91 322.17,32.07 321.71,32.07 L303.27,32.07 C302.82,32.07 302.43,32.23 302.11,32.55 C301.79,32.87 301.63,33.25 301.63,33.71 L301.63,36.3 C301.63,36.75 301.79,37.14 302.11,37.46 C302.43,37.78 302.81,37.94 303.27,37.94 L324.43,37.94 C324.88,37.94 325.27,38.1 325.59,38.42 C325.91,38.74 326.07,39.12 326.07,39.58 L326.07,48.97 C326.07,49.42 325.91,49.81 325.59,50.13 C325.27,50.45 324.89,50.61 324.43,50.61 L289.79,50.61 C289.34,50.61 288.95,50.45 288.63,50.13 C288.31,49.81 288.15,49.43 288.15,48.97 L288.15,2.42 C288.15,1.97 288.31,1.58 288.63,1.26 C288.95,0.94 289.33,0.78 289.79,0.78 L324.43,0.78 C324.88,0.78 325.27,0.94 325.59,1.26 C325.91,1.58 326.07,1.96 326.07,2.42 L326.07,11.67 C326.07,12.12 325.91,12.51 325.59,12.83 C325.27,13.15 324.89,13.31 324.43,13.31 L303.27,13.31 C302.82,13.31 302.43,13.47 302.11,13.79 C301.79,14.11 301.63,14.45 301.63,14.9 Z" id="Path" fill="#1A65AA"></path>
                <path d="M330.91,48.93 L330.91,2.38 C330.91,1.93 331.07,1.54 331.39,1.22 C331.71,0.9 332.09,0.74 332.55,0.74 L351.13,0.74 C358.25,0.74 364.08,2.83 368.62,7 C371.07,9.27 372.93,11.97 374.2,15.1 C375.47,18.23 376.11,21.75 376.11,25.65 C376.11,29.55 375.47,33.08 374.2,36.23 C372.93,39.38 371.07,42.09 368.62,44.36 C366.35,46.4 363.75,47.94 360.83,48.99 C357.9,50.03 354.67,50.56 351.13,50.56 L332.55,50.56 C332.1,50.56 331.71,50.4 331.39,50.08 C331.06,49.77 330.91,49.38 330.91,48.93 Z M346.01,38.04 L351.11,38.04 C352.38,38.04 353.7,37.88 355.06,37.56 C356.42,37.24 357.65,36.64 358.73,35.76 C359.82,34.88 360.71,33.63 361.42,32.02 C362.12,30.41 362.47,28.31 362.47,25.73 C362.47,23.15 362.12,21.05 361.42,19.44 C360.72,17.83 359.81,16.58 358.7,15.7 C357.59,14.82 356.36,14.21 355.03,13.9 C353.69,13.58 352.39,13.42 351.12,13.42 L346.02,13.42 C345.57,13.42 345.18,13.58 344.86,13.9 C344.54,14.22 344.38,14.6 344.38,15.06 L344.38,36.43 C344.38,36.88 344.54,37.27 344.86,37.59 C345.18,37.91 345.56,38.04 346.01,38.04 Z" id="Shape" fill="#1A65AA"></path>
                <path d="M391.78,50.56 L381.55,50.56 C381.05,50.56 380.66,50.4 380.37,50.08 C380.08,49.76 379.93,49.38 379.93,48.92 L379.93,2.44 C379.93,1.99 380.08,1.6 380.37,1.28 C380.66,0.96 381.06,0.8 381.55,0.8 L391.77,0.8 C392.22,0.8 392.6,0.96 392.92,1.28 C393.24,1.6 393.39,1.98 393.39,2.44 L393.39,48.92 C393.39,49.37 393.23,49.76 392.92,50.08 C392.61,50.4 392.23,50.56 391.78,50.56 Z" id="Path" fill="#1A65AA"></path>
                <path d="M413.28,2.32 C413.46,1.91 413.77,1.56 414.2,1.27 C414.63,0.98 415.1,0.83 415.6,0.83 L425.13,0.83 C425.58,0.83 426.03,0.98 426.46,1.27 C426.89,1.57 427.2,1.92 427.38,2.32 L447.25,48.59 C447.43,49 447.4,49.43 447.15,49.88 C446.9,50.33 446.41,50.56 445.69,50.56 L434.05,50.56 C433.55,50.56 433.09,50.41 432.65,50.12 C432.22,49.83 431.89,49.47 431.66,49.07 L429.82,44.99 C429.59,44.58 429.26,44.23 428.83,43.94 C428.4,43.65 427.96,43.5 427.5,43.5 L413.14,43.5 C412.64,43.5 412.18,43.65 411.74,43.94 C411.31,44.24 411,44.59 410.82,44.99 L408.91,49.07 C408.73,49.48 408.42,49.83 407.99,50.12 C407.56,50.42 407.12,50.56 406.66,50.56 L394.96,50.56 C394.73,50.56 394.5,50.52 394.25,50.42 C394,50.33 393.8,50.19 393.64,50.01 C393.48,49.83 393.38,49.6 393.33,49.33 C393.29,49.06 393.35,48.74 393.53,48.38 L413.28,2.32 Z M417.3,31.92 L423.36,31.92 C423.81,31.92 424.14,31.77 424.35,31.48 C424.55,31.19 424.54,30.83 424.32,30.43 C423.87,29.3 423.32,27.97 422.69,26.45 C422.05,24.93 421.46,23.51 420.92,22.2 C420.74,21.79 420.53,21.59 420.31,21.59 C420.08,21.59 419.88,21.79 419.7,22.2 L416.3,30.43 C416.12,30.84 416.12,31.19 416.3,31.48 C416.46,31.77 416.8,31.92 417.3,31.92 Z" id="Shape" fill="#1A65AA"></path>
            </g>
            <g id="Group" transform="translate(15.180000, -0.000000)">
                <g transform="translate(29.380000, 0.000000)" fill="#14374C">
                    <polygon id="Path" points="0.9 0.552504598 19.3 23.1725046 19.3 0.552504598 21.37 0.552504598 21.37 27.8925046 20.55 27.8925046 2.11 5.3125046 2.11 27.8925046 0 27.8925046 0 0.552504598 0.9 0.552504598"></polygon>
                    <path d="M48.47,0.552504598 L48.47,17.5425046 C48.47,31.8425046 27.53,31.8825046 27.53,17.5425046 L27.53,0.552504598 L29.6,0.552504598 L29.6,17.5425046 C29.6,29.3025046 46.4,29.2625046 46.4,17.5425046 L46.4,0.552504598 L48.47,0.552504598 L48.47,0.552504598 Z" id="Path"></path>
                    <polygon id="Path" points="56.53 13.1625046 72.55 13.1625046 72.55 15.0725046 56.53 15.0725046 56.53 25.8525046 73.8 25.8525046 73.8 27.8825046 54.46 27.8825046 54.46 0.542504598 73.33 0.542504598 73.33 2.5325046 56.53 2.5325046"></polygon>
                    <polygon id="Path" points="101.14 0.552504598 89.89 27.9725046 87.62 27.9725046 76.37 0.552504598 78.64 0.552504598 88.76 25.5525046 98.88 0.552504598 101.14 0.552504598"></polygon>
                    <path d="M129.440258,14.2625046 C129.4,21.4525046 124.83,28.3625046 115.65,28.3625046 C106.47,28.3625046 101.86,21.4125046 101.86,14.1825046 C101.86,6.8425046 106.43,0.122504598 115.65,0.122504598 C124.87,0.122504598 129.48,6.8825046 129.440258,14.2625046 Z M103.94,14.2225046 C103.98,20.3925046 107.89,26.4125046 115.66,26.4125046 C123.47,26.4125046 127.42,20.3925046 127.42,14.2225046 C127.42,7.8925046 123.51,2.0725046 115.66,2.0725046 C107.81,2.0725046 103.9,7.7725046 103.94,14.2225046 Z" id="Shape"></path>
                    <path d="M163.97,8.4825046 C163.97,10.5925046 162.95,12.6225046 160.42,13.7525046 C163.62,14.7325046 164.8,18.1325046 164.8,19.8425046 C164.8,25.9325046 160.23,27.8925046 154.57,27.8925046 C150.23,27.8925046 145.94,27.8925046 141.6,27.8925046 L141.6,0.552504598 C145.9,0.552504598 150.23,0.552504598 154.57,0.552504598 C159.95,0.552504598 163.97,2.9725046 163.97,8.4825046 Z M146.67,11.5225046 L154.56,11.5225046 C157.8,11.5225046 158.86,10.1525046 158.86,8.5925046 C158.86,7.3425046 157.84,5.2325046 154.56,5.2325046 L146.67,5.2325046 L146.67,11.5225046 Z M146.67,23.0925046 L154.56,23.0925046 C156.67,23.0925046 159.68,22.3925046 159.68,19.8125046 C159.68,17.3525046 156.67,16.0625046 154.56,16.0625046 L146.67,16.0625046 L146.67,23.0925046 Z" id="Shape"></path>
                    <path d="M195.14,14.3825046 C195.06,21.4525046 190.73,28.5225046 181.12,28.5225046 C171.51,28.5225046 167.06,21.6125046 167.06,14.4225046 C167.06,7.2325046 171.67,0.0124942369 181.12,0.0124942369 C190.53,0.0025045984 195.22,7.2325046 195.14,14.3825046 Z M172.14,14.4925046 C172.26,18.9825046 174.68,23.7925046 181.12,23.7925046 C187.57,23.7925046 189.99,18.9525046 190.07,14.4525046 C190.15,9.8425046 187.57,4.6825046 181.12,4.6825046 C174.67,4.6925046 172.02,9.8825046 172.14,14.4925046 Z" id="Shape"></path>
                    <polygon id="Path" points="216.58 0.512504598 221.74 0.512504598 221.74 27.8925046 218.54 27.8925046 218.54 27.9325046 204.16 9.4525046 204.16 27.8925046 199 27.8925046 199 0.552504598 203.18 0.552504598 216.58 17.5025046"></polygon>
                    <path d="M253.39,14.3825046 C253.31,21.4525046 248.98,28.5225046 239.37,28.5225046 C229.76,28.5225046 225.31,21.6125046 225.31,14.4225046 C225.31,7.2325046 229.92,0.0124942369 239.37,0.0124942369 C248.78,0.0025045984 253.47,7.2325046 253.39,14.3825046 Z M230.39,14.4925046 C230.51,18.9825046 232.93,23.7925046 239.37,23.7925046 C245.81,23.7925046 248.24,18.9525046 248.32,14.4525046 C248.4,9.8425046 245.82,4.6825046 239.37,4.6825046 C232.92,4.6825046 230.27,9.8825046 230.39,14.4925046 Z" id="Shape"></path>
                    <path d="M264.72,8.4825046 C264.76,2.7025046 270.23,0.202504598 275.27,0.202504598 C280.74,0.202504598 286.68,2.4325046 286.68,8.9125046 C286.68,15.8625046 281.45,17.1925046 275.7,17.1925046 C273.43,17.1925046 269.76,17.7825046 269.76,20.7425046 L269.76,23.0825046 L286.75,23.0825046 L286.75,27.8825046 L264.6,27.8825046 C264.6,25.5025046 264.6,23.1125046 264.6,20.6925046 C264.6,14.4025046 270.3,12.5325046 275.69,12.5325046 C277.76,12.5325046 281.55,12.1825046 281.55,9.0125046 C281.55,6.0425046 278.85,4.6325046 275.34,4.6325046 C272.64,4.6325046 269.87,6.0025046 269.83,8.4625046 L264.72,8.4625046 L264.72,8.4825046 Z" id="Path"></path>
                    <path d="M289.69,12.2325046 C289.69,-4.0974954 313.67,-4.0574954 313.67,12.2325046 L313.67,16.1825046 C313.67,32.4725046 289.69,32.5125046 289.69,16.1825046 L289.69,12.2325046 Z M294.81,16.1725046 C294.81,26.0925046 308.56,26.0925046 308.56,16.1725046 L308.56,12.2225046 C308.56,2.4525046 294.81,2.3425046 294.81,12.2225046 L294.81,16.1725046 Z" id="Shape"></path>
                    <path d="M316.99,8.4825046 C317.03,2.7025046 322.5,0.202504598 327.54,0.202504598 C333.01,0.202504598 338.95,2.4325046 338.95,8.9125046 C338.95,15.8625046 333.72,17.1925046 327.97,17.1925046 C325.7,17.1925046 322.03,17.7825046 322.03,20.7425046 L322.03,23.0825046 L339.02,23.0825046 L339.02,27.8825046 L316.87,27.8825046 C316.87,25.5025046 316.87,23.1125046 316.87,20.6925046 C316.87,14.4025046 322.57,12.5325046 327.96,12.5325046 C330.03,12.5325046 333.82,12.1825046 333.82,9.0125046 C333.82,6.0425046 331.12,4.6325046 327.61,4.6325046 C324.91,4.6325046 322.14,6.0025046 322.1,8.4625046 L316.99,8.4625046 L316.99,8.4825046 Z" id="Path"></path>
                    <polygon id="Path" points="345.34 23.5225046 349.44 23.5225046 349.44 5.2325046 345.18 5.2325046 345.18 0.542504598 354.56 0.542504598 354.56 23.5125046 358.35 23.5125046 358.35 27.8925046 345.34 27.8925046"></polygon>
                </g>
                <circle id="Oval" fill="#1A65AA" cx="6.85" cy="13.5625046" r="6.85"></circle>
                <circle id="Oval" fill="#1A65AA" cx="408.78" cy="13.5625046" r="6.85"></circle>
            </g>
        </g>
    </g>
</svg>