<svg width="103" height="37" viewBox="0 0 103 37" fill="none" xmlns="http://www.w3.org/2000/svg">
<path fill-rule="evenodd" clip-rule="evenodd" d="M21.8458 36.7406H30.5636V10.824H21.8458V36.7406Z" fill="#0061A1"/>
<path fill-rule="evenodd" clip-rule="evenodd" d="M21.9269 4.33317C21.9269 1.93889 23.8794 0 26.2864 0C28.6935 0 30.6448 1.93889 30.6448 4.33317C30.6448 6.72372 28.6935 8.66385 26.2864 8.66385C23.8794 8.66385 21.9269 6.72372 21.9269 4.33317Z" fill="#E85314"/>
<path fill-rule="evenodd" clip-rule="evenodd" d="M34.9219 36.7406H43.6398V10.824H34.9219V36.7406Z" fill="#0061A1"/>
<path fill-rule="evenodd" clip-rule="evenodd" d="M34.9217 4.33317C34.9217 1.93889 36.8742 0 39.28 0C41.687 0 43.6396 1.93889 43.6396 4.33317C43.6396 6.72372 41.687 8.66385 39.28 8.66385C36.8742 8.66385 34.9217 6.72372 34.9217 4.33317Z" fill="#E85314"/>
<path fill-rule="evenodd" clip-rule="evenodd" d="M8.85373 0.00037384H17.5703V8.66048H8.85373V0.00037384Z" fill="#0061A1"/>
<path fill-rule="evenodd" clip-rule="evenodd" d="M1.35734 8.6611H8.85347C8.85347 8.6611 8.65006 9.2787 8.65006 10.1508C8.65006 11.2351 9.02047 12.4116 10.1129 13.5071C13.0711 16.4728 14.3883 17.4198 16.4551 20.0087C17.6002 21.446 18.3059 23.5234 18.3059 25.9826C18.3059 29.4573 16.71 32.2746 14.8767 33.9178C13.0247 35.5809 10.418 36.6627 8.02978 36.6627C6.08857 36.6627 3.87614 36.2384 2.52257 35.546C0.818673 34.6764 0 34.1199 0 34.1199V26.7324C0 26.7324 0.787282 27.4049 2.24256 28.2221C3.29855 28.8148 4.40727 29.2802 6.02579 29.3875C7.42205 29.481 8.79948 29.2103 9.68847 28.2271C10.4393 27.3924 10.5373 26.3856 10.5373 25.6095C10.5373 24.7998 10.2836 24.1273 9.91197 23.4685C8.15283 20.3418 3.72798 18.1971 2.04166 15.1465C0.657952 12.6462 1.35734 8.6611 1.35734 8.6611Z" fill="#0061A1"/>
<path fill-rule="evenodd" clip-rule="evenodd" d="M57.4017 9.20697V10.5844C56.4612 10.1652 55.7103 9.95307 55.1528 9.95307C54.8364 9.95307 54.5815 10.0067 54.3932 10.1128C54.2048 10.2188 54.1132 10.3586 54.1132 10.5332C54.1132 10.6692 54.1797 10.7965 54.3153 10.9175C54.4509 11.0386 54.7824 11.1958 55.306 11.3867C55.8284 11.5788 56.2503 11.7572 56.5642 11.9207C56.8793 12.0854 57.1506 12.3174 57.3791 12.6194C57.6101 12.9188 57.7219 13.2943 57.7219 13.7535C57.7219 14.406 57.4733 14.9263 56.9735 15.3118C56.475 15.6986 55.8146 15.8908 55.0009 15.8908C54.1195 15.8908 53.2681 15.6649 52.4419 15.212V13.6924C52.9153 14.0093 53.3347 14.2388 53.7001 14.3823C54.0667 14.5295 54.4547 14.6007 54.8641 14.6007C55.5572 14.6007 55.905 14.3823 55.905 13.9519C55.905 13.8021 55.8347 13.6637 55.694 13.5314C55.5572 13.4016 55.2219 13.2419 54.6945 13.0523C54.1634 12.8664 53.744 12.6905 53.4339 12.5283C53.125 12.3661 52.8563 12.1365 52.6303 11.8358C52.4068 11.5376 52.295 11.1546 52.295 10.6867C52.295 10.0791 52.5386 9.5925 53.0296 9.21944C53.5218 8.84764 54.1785 8.66298 55.0009 8.66298C55.7593 8.66298 56.5604 8.84389 57.4017 9.20697Z" fill="#747373"/>
<path fill-rule="evenodd" clip-rule="evenodd" d="M59.9963 12.8695H62.0782C61.9978 12.177 61.65 11.8314 61.0385 11.8314C60.4182 11.8314 60.0717 12.177 59.9963 12.8695ZM63.3225 14.323V15.2663C62.7461 15.6855 62.0355 15.8914 61.1841 15.8914C60.3429 15.8914 59.6686 15.6668 59.1638 15.2189C58.6591 14.7685 58.4054 14.1733 58.4054 13.4335C58.4054 12.7048 58.6427 12.1084 59.1174 11.6405C59.5933 11.1727 60.196 10.9369 60.9305 10.9369C61.6701 10.9369 62.2728 11.1839 62.7462 11.6767C63.217 12.1696 63.4405 12.8296 63.4091 13.658H59.9649C59.9963 14.091 60.1508 14.4216 60.4283 14.6562C60.7045 14.8882 61.0799 15.0055 61.5458 15.0055C62.1121 15.0055 62.7047 14.7772 63.3225 14.323Z" fill="#747373"/>
<path fill-rule="evenodd" clip-rule="evenodd" d="M65.8128 11.0383V12.402H65.8329C66.2699 11.4263 66.7784 10.9372 67.361 10.9372C67.6385 10.9372 67.9712 11.082 68.3617 11.3727L67.9461 12.6977C67.5732 12.4631 67.2744 12.3471 67.0521 12.3471C66.7043 12.3471 66.4092 12.5605 66.1707 12.9884C65.9321 13.4201 65.8128 13.6696 65.8128 13.7408V15.8019H64.3023V11.0383H65.8128Z" fill="#747373"/>
<path fill-rule="evenodd" clip-rule="evenodd" d="M70.7397 15.8913L68.5235 11.0378H70.1407L71.1553 13.6629L72.1899 11.0378H73.7896L71.5834 15.8913H70.7397Z" fill="#747373"/>
<path fill-rule="evenodd" clip-rule="evenodd" d="M75.8355 15.8022H74.325V11.0386H75.8355V15.8022ZM74.2446 9.48894C74.2446 9.26062 74.325 9.06723 74.4882 8.90378C74.6515 8.74283 74.8461 8.66298 75.0721 8.66298C75.3019 8.66298 75.499 8.74283 75.6622 8.90378C75.8255 9.06723 75.9058 9.26062 75.9058 9.48894C75.9058 9.71352 75.8255 9.90941 75.6622 10.0729C75.499 10.2363 75.3019 10.3186 75.0721 10.3186C74.8461 10.3186 74.6515 10.2363 74.4882 10.0729C74.325 9.90941 74.2446 9.71352 74.2446 9.48894Z" fill="#747373"/>
<path fill-rule="evenodd" clip-rule="evenodd" d="M81.0816 14.4998V15.5753C80.4939 15.7862 79.954 15.891 79.4618 15.891C78.6205 15.891 77.9475 15.6677 77.4415 15.2185C76.9367 14.7693 76.6843 14.173 76.6843 13.4343C76.6843 12.7082 76.9405 12.113 77.449 11.6427C77.96 11.1748 78.608 10.9377 79.3952 10.9377C79.9038 10.9377 80.4424 11.0413 81.0112 11.2509V12.3651C80.5956 12.1542 80.1863 12.0482 79.782 12.0482C79.3325 12.0482 78.9721 12.1729 78.7009 12.4225C78.4297 12.6695 78.2953 13.0051 78.2953 13.4231C78.2953 13.8448 78.4271 14.1829 78.6896 14.4412C78.9558 14.6982 79.3023 14.8292 79.7317 14.8292C80.0494 14.8292 80.5002 14.7194 81.0816 14.4998Z" fill="#747373"/>
<path fill-rule="evenodd" clip-rule="evenodd" d="M83.4899 15.8022H81.9806V11.0386H83.4899V15.8022ZM81.899 9.48894C81.899 9.26062 81.9818 9.06723 82.1426 8.90378C82.3058 8.74283 82.5004 8.66298 82.7277 8.66298C82.9575 8.66298 83.1533 8.74283 83.3166 8.90378C83.4798 9.06723 83.5602 9.26062 83.5602 9.48894C83.5602 9.71352 83.4798 9.90941 83.3166 10.0729C83.1533 10.2363 82.9575 10.3186 82.7277 10.3186C82.5004 10.3186 82.3058 10.2363 82.1426 10.0729C81.9818 9.90941 81.899 9.71352 81.899 9.48894Z" fill="#747373"/>
<path fill-rule="evenodd" clip-rule="evenodd" d="M87.0365 15.0055C87.7573 15.0055 88.1176 14.4628 88.1176 13.3823C88.1176 12.348 87.7573 11.8314 87.0365 11.8314C86.6912 11.8314 86.4213 11.9662 86.2267 12.2407C86.0308 12.5127 85.9366 12.9019 85.9366 13.4147C85.9366 14.474 86.3033 15.0055 87.0365 15.0055ZM87.0365 10.9369C87.7899 10.9369 88.424 11.1565 88.9476 11.5944C89.47 12.0311 89.7337 12.6412 89.7337 13.4222C89.7337 14.207 89.4675 14.8159 88.9376 15.2451C88.4039 15.6793 87.7698 15.8914 87.0365 15.8914C86.2417 15.8914 85.5901 15.6643 85.084 15.2027C84.5805 14.7423 84.3244 14.1459 84.3244 13.4147C84.3244 12.6636 84.583 12.0673 85.0991 11.6143C85.6152 11.1639 86.2606 10.9369 87.0365 10.9369Z" fill="#747373"/>
<path fill-rule="evenodd" clip-rule="evenodd" d="M95.9597 14.5278V12.3094C95.6935 12.1273 95.4185 12.0387 95.1385 12.0387C94.7681 12.0387 94.4806 12.1659 94.2734 12.4217C94.07 12.6787 93.9657 13.0381 93.9657 13.4997C93.9657 13.9252 94.0675 14.2683 94.2721 14.5253C94.4755 14.7823 94.7493 14.9121 95.0895 14.9121C95.3884 14.9121 95.6797 14.7836 95.9597 14.5278ZM97.4313 8.92823V15.8017H95.9597V15.4274C95.583 15.7355 95.1511 15.8915 94.6626 15.8915C94.0398 15.8915 93.52 15.6594 93.1006 15.2003C92.6837 14.7411 92.4753 14.1635 92.4753 13.471C92.4753 12.7623 92.6875 12.1847 93.1107 11.7343C93.5351 11.2851 94.0775 11.0593 94.743 11.0593C95.1536 11.0593 95.5617 11.1578 95.9597 11.3525V8.92823H97.4313Z" fill="#747373"/>
<path fill-rule="evenodd" clip-rule="evenodd" d="M99.6462 12.9426H101.674C101.596 12.2664 101.258 11.9308 100.661 11.9308C100.058 11.9308 99.7203 12.2664 99.6462 12.9426ZM102.89 14.3612V15.2808C102.328 15.6863 101.634 15.8909 100.805 15.8909C99.9828 15.8909 99.3261 15.6713 98.8351 15.2321C98.3416 14.7942 98.0955 14.2152 98.0955 13.4916C98.0955 12.7829 98.3291 12.2015 98.7886 11.7424C99.252 11.287 99.8409 11.0586 100.558 11.0586C101.277 11.0586 101.867 11.2982 102.327 11.7798C102.788 12.2601 103.004 12.9027 102.972 13.7099H99.6161C99.6462 14.1317 99.7969 14.4573 100.068 14.6844C100.337 14.9115 100.701 15.025 101.157 15.025C101.707 15.025 102.287 14.8042 102.89 14.3612Z" fill="#747373"/>
<path fill-rule="evenodd" clip-rule="evenodd" d="M54.1043 24.9801H52.2949V17.7623H54.1043V24.9801Z" fill="#747373"/>
<path fill-rule="evenodd" clip-rule="evenodd" d="M57.203 20.1034V20.7272C57.7266 20.2419 58.2967 19.9998 58.9094 19.9998C59.7545 19.9998 60.3421 20.3442 60.6799 21.0379C61.2725 20.3442 61.9192 19.9998 62.6161 19.9998C63.1811 19.9998 63.6419 20.1708 63.9998 20.5126C64.3564 20.852 64.5347 21.2974 64.5347 21.8464V24.9793H62.9915V22.1184C62.9915 21.7765 62.9124 21.507 62.7517 21.3161C62.5922 21.1228 62.3687 21.0292 62.0837 21.0292C61.6317 21.0292 61.2261 21.3049 60.8645 21.8564V24.9793H59.3251V22.0897C59.3251 21.7466 59.2384 21.4846 59.0677 21.3024C58.8969 21.119 58.6684 21.0292 58.3846 21.0292C57.9778 21.0292 57.5835 21.2525 57.203 21.7054V24.9793H55.6573V20.1034H57.203Z" fill="#747373"/>
<path fill-rule="evenodd" clip-rule="evenodd" d="M67.3474 21.4827V23.7248C67.6375 23.9394 67.9351 24.0467 68.2415 24.0467C68.6156 24.0467 68.9132 23.9119 69.133 23.6449C69.3514 23.3792 69.4632 23.0173 69.4632 22.5619C69.4632 22.0978 69.3615 21.736 69.1593 21.479C68.9572 21.2182 68.6709 21.0909 68.3042 21.0909C67.9941 21.0909 67.6764 21.2219 67.3474 21.4827ZM67.3474 20.104V20.527C67.758 20.1764 68.2264 20.0005 68.75 20.0005C69.3891 20.0005 69.9278 20.24 70.3685 20.7191C70.8092 21.197 71.0277 21.7871 71.0277 22.4821C71.0277 23.2656 70.8067 23.8932 70.3647 24.3661C69.924 24.8377 69.3389 25.0748 68.6094 25.0748C68.1598 25.0748 67.7392 24.9625 67.3474 24.7379V27.4166H65.8018V20.104H67.3474Z" fill="#747373"/>
<path fill-rule="evenodd" clip-rule="evenodd" d="M75.4066 24.9796V24.2821C74.9521 24.8099 74.4234 25.0744 73.8195 25.0744C73.2871 25.0744 72.8526 24.9097 72.5199 24.5828C72.1871 24.2559 72.0214 23.803 72.0214 23.2253V20.1037H73.5671V23.118C73.5671 23.7356 73.8245 24.0463 74.3406 24.0463C74.6331 24.0463 74.8805 23.9328 75.0864 23.7057C75.2936 23.4836 75.3965 23.3152 75.3965 23.2091V20.1037H76.951V24.9796H75.4066Z" fill="#747373"/>
<path fill-rule="evenodd" clip-rule="evenodd" d="M79.6009 21.9785H81.7317C81.6501 21.2711 81.2935 20.913 80.667 20.913C80.0316 20.913 79.6763 21.2711 79.6009 21.9785ZM83.0049 23.467V24.434C82.4173 24.8607 81.6865 25.074 80.8189 25.074C79.955 25.074 79.2644 24.8444 78.7471 24.3841C78.231 23.9237 77.9736 23.3123 77.9736 22.555C77.9736 21.8101 78.2147 21.1975 78.7006 20.7184C79.1853 20.2393 79.8043 19.9997 80.559 19.9997C81.3136 19.9997 81.9326 20.2518 82.416 20.7571C82.9007 21.2611 83.1255 21.9386 83.0941 22.7845H79.5695C79.6009 23.2275 79.7579 23.5681 80.0416 23.8076C80.3267 24.0459 80.7084 24.1645 81.1855 24.1645C81.7669 24.1645 82.3734 23.9311 83.0049 23.467Z" fill="#747373"/>
<path fill-rule="evenodd" clip-rule="evenodd" d="M87.5112 20.3617V21.4521C86.9235 21.0941 86.3773 20.9119 85.8751 20.9119C85.5047 20.9119 85.3176 21.0404 85.3176 21.2912C85.3176 21.3573 85.3577 21.4209 85.4356 21.4846C85.516 21.5495 85.8123 21.6842 86.3334 21.8901C86.8545 22.0959 87.2198 22.3318 87.4346 22.6012C87.6493 22.8695 87.7585 23.1652 87.7585 23.4871C87.7585 23.9937 87.5852 24.3854 87.2374 24.6612C86.8896 24.9356 86.3961 25.0741 85.7558 25.0741C85.0978 25.0741 84.5102 24.9569 83.9979 24.7186V23.6381C84.6295 23.9138 85.1568 24.051 85.5838 24.051C86.0822 24.051 86.3334 23.93 86.3334 23.6905C86.3334 23.5969 86.2869 23.5096 86.194 23.4272C86.1011 23.3449 85.7909 23.2001 85.2661 22.9968C84.7387 22.7909 84.3796 22.5676 84.185 22.3218C83.9904 22.0785 83.8949 21.804 83.8949 21.5058C83.8949 21.0604 84.0808 20.6985 84.4524 20.4191C84.8241 20.1383 85.3163 19.9998 85.9265 19.9998C86.5117 19.9998 87.0415 20.1221 87.5112 20.3617Z" fill="#747373"/>
<path fill-rule="evenodd" clip-rule="evenodd" d="M92.2381 20.1034V21.1527H90.4514V23.1627C90.4514 23.4035 90.5166 23.5931 90.6497 23.7329C90.7828 23.8726 90.9674 23.9412 91.2047 23.9412C91.5224 23.9412 91.869 23.8489 92.2381 23.658V24.7697C91.7459 24.9718 91.27 25.0741 90.8105 25.0741C90.2065 25.0741 89.7382 24.9194 89.4042 24.6087C89.0727 24.2993 88.9057 23.8452 88.9057 23.245V21.1527H88.2038V20.852L90.2567 18.57H90.4514V20.1034H92.2381Z" fill="#747373"/>
<path fill-rule="evenodd" clip-rule="evenodd" d="M95.5679 24.1645C96.3062 24.1645 96.6767 23.6117 96.6767 22.5026C96.6767 21.4445 96.3062 20.913 95.5679 20.913C95.2151 20.913 94.9389 21.0553 94.738 21.3335C94.5383 21.6142 94.4391 22.0135 94.4391 22.535C94.4391 23.6217 94.8158 24.1645 95.5679 24.1645ZM95.5679 19.9997C96.3376 19.9997 96.9906 20.2256 97.5267 20.6735C98.0616 21.1201 98.3303 21.7452 98.3303 22.545C98.3303 23.3485 98.0579 23.9711 97.5142 24.4127C96.968 24.8544 96.3213 25.074 95.5679 25.074C94.753 25.074 94.0863 24.8395 93.569 24.3691C93.0516 23.8962 92.7917 23.2873 92.7917 22.535C92.7917 21.7702 93.0567 21.1551 93.584 20.6922C94.1114 20.2318 94.7744 19.9997 95.5679 19.9997Z" fill="#747373"/>
<path fill-rule="evenodd" clip-rule="evenodd" d="M102.706 20.3617V21.4521C102.115 21.0941 101.572 20.9119 101.067 20.9119C100.697 20.9119 100.511 21.0404 100.511 21.2912C100.511 21.3573 100.55 21.4209 100.628 21.4846C100.707 21.5495 101.005 21.6842 101.525 21.8901C102.046 22.0959 102.414 22.3318 102.628 22.6012C102.844 22.8695 102.949 23.1652 102.949 23.4871C102.949 23.9937 102.778 24.3854 102.431 24.6612C102.084 24.9356 101.591 25.0741 100.949 25.0741C100.29 25.0741 99.7046 24.9569 99.1898 24.7186V23.6381C99.8214 23.9138 100.349 24.051 100.777 24.051C101.275 24.051 101.525 23.93 101.525 23.6905C101.525 23.5969 101.479 23.5096 101.387 23.4272C101.294 23.3449 100.984 23.2001 100.458 22.9968C99.9331 22.7909 99.5715 22.5676 99.3782 22.3218C99.1835 22.0785 99.0869 21.804 99.0869 21.5058C99.0869 21.0604 99.2727 20.6985 99.6456 20.4191C100.019 20.1383 100.509 19.9998 101.12 19.9998C101.706 19.9998 102.235 20.1221 102.706 20.3617Z" fill="#747373"/>
<path fill-rule="evenodd" clip-rule="evenodd" d="M54.1043 34.1318H52.2949V26.9127H54.1043V34.1318Z" fill="#747373"/>
<path fill-rule="evenodd" clip-rule="evenodd" d="M57.1816 29.2539V29.9463C57.6374 29.4148 58.1685 29.149 58.7775 29.149C59.2898 29.149 59.7154 29.3112 60.0557 29.6369C60.3972 29.96 60.568 30.4242 60.568 31.028V34.131H59.0223V31.1578C59.0223 30.504 58.7687 30.1784 58.2576 30.1784C57.896 30.1784 57.5369 30.4466 57.1816 30.9844V34.131H55.6384V29.2539H57.1816Z" fill="#747373"/>
<path fill-rule="evenodd" clip-rule="evenodd" d="M65.3119 29.2538V30.3031H63.5239V32.3119C63.5239 32.5539 63.5892 32.7448 63.7248 32.8846C63.8566 33.0231 64.0412 33.0929 64.2773 33.0929C64.5962 33.0929 64.9415 32.9981 65.3119 32.8097V33.9201C64.821 34.1235 64.3438 34.2258 63.8818 34.2258C63.2778 34.2258 62.8107 34.0686 62.4792 33.7604C62.1465 33.4485 61.9782 32.9931 61.9782 32.3967V30.3031H61.2763V30.0025L63.3305 27.7205H63.5239V29.2538H65.3119Z" fill="#747373"/>
<path fill-rule="evenodd" clip-rule="evenodd" d="M67.4995 31.1302H69.6316C69.5487 30.4203 69.1933 30.0647 68.5655 30.0647C67.9314 30.0647 67.5761 30.4203 67.4995 31.1302ZM70.906 32.6162V33.5832C70.3159 34.0124 69.5864 34.2257 68.7162 34.2257C67.8523 34.2257 67.163 33.9949 66.6456 33.5345C66.1308 33.0741 65.8709 32.464 65.8709 31.7054C65.8709 30.9605 66.1145 30.3467 66.5992 29.8688C67.0864 29.3897 67.7042 29.1489 68.4563 29.1489C69.2122 29.1489 69.8312 29.4034 70.3146 29.9075C70.7993 30.4116 71.0253 31.0878 70.9939 31.9362H67.4693C67.4995 32.3792 67.6564 32.7185 67.9427 32.9581C68.2252 33.1964 68.607 33.3149 69.0866 33.3149C69.6655 33.3149 70.2719 33.0816 70.906 32.6162Z" fill="#747373"/>
<path fill-rule="evenodd" clip-rule="evenodd" d="M73.6163 29.2539V30.6488H73.6351C74.0834 29.6494 74.6045 29.149 75.2009 29.149C75.4859 29.149 75.8262 29.2975 76.2243 29.592L75.7986 30.9532C75.4169 30.7136 75.113 30.5914 74.8845 30.5914C74.5254 30.5914 74.2265 30.8122 73.9804 31.2526C73.7381 31.6918 73.6163 31.9476 73.6163 32.0212V34.131H72.0694V29.2539H73.6163Z" fill="#747373"/>
<path fill-rule="evenodd" clip-rule="evenodd" d="M78.4249 29.2539V29.9463C78.8782 29.4148 79.4106 29.149 80.0208 29.149C80.5306 29.149 80.9575 29.3112 81.299 29.6369C81.6406 29.96 81.8101 30.4242 81.8101 31.028V34.131H80.2656V31.1578C80.2656 30.504 80.012 30.1784 79.501 30.1784C79.1381 30.1784 78.7777 30.4466 78.4249 30.9844V34.131H76.8804V29.2539H78.4249Z" fill="#747373"/>
<path fill-rule="evenodd" clip-rule="evenodd" d="M85.5909 33.3149C86.3305 33.3149 86.6984 32.7634 86.6984 31.6543C86.6984 30.5937 86.3305 30.066 85.5909 30.066C85.2368 30.066 84.9618 30.2045 84.7609 30.4839C84.5613 30.7634 84.4633 31.1639 84.4633 31.6842C84.4633 32.7709 84.8375 33.3149 85.5909 33.3149ZM85.5909 29.1489C86.3606 29.1489 87.011 29.3735 87.5497 29.8227C88.0833 30.2706 88.3533 30.8957 88.3533 31.6954C88.3533 32.4989 88.0808 33.1228 87.5359 33.5632C86.9897 34.0049 86.343 34.2257 85.5909 34.2257C84.776 34.2257 84.1093 33.9899 83.5919 33.5183C83.0734 33.0479 82.8122 32.4378 82.8122 31.6842C82.8122 30.9194 83.0796 30.3055 83.6057 29.8451C84.1369 29.3822 84.7986 29.1489 85.5909 29.1489Z" fill="#747373"/>
<path fill-rule="evenodd" clip-rule="evenodd" d="M92.7274 29.5121V30.6026C92.1385 30.2445 91.5911 30.0648 91.0888 30.0648C90.7184 30.0648 90.5326 30.1909 90.5326 30.4416C90.5326 30.5078 90.5715 30.5726 90.6506 30.635C90.7285 30.6987 91.0273 30.8359 91.5484 31.0393C92.067 31.2451 92.4349 31.4822 92.6496 31.7517C92.8656 32.0212 92.9723 32.3156 92.9723 32.6375C92.9723 33.1428 92.7977 33.5359 92.4524 33.8116C92.1046 34.0861 91.6112 34.2258 90.9695 34.2258C90.3116 34.2258 89.7252 34.1073 89.2129 33.8677V32.7873C89.8445 33.0655 90.3719 33.2015 90.7988 33.2015C91.2973 33.2015 91.5471 33.0817 91.5471 32.8409C91.5471 32.7486 91.5007 32.66 91.409 32.5777C91.3174 32.4966 91.0085 32.3518 90.4786 32.146C89.955 31.9426 89.5934 31.718 89.4 31.4735C89.2066 31.2289 89.1087 30.9557 89.1087 30.6562C89.1087 30.2108 89.2945 29.8502 89.6674 29.5695C90.0404 29.29 90.5313 29.149 91.1428 29.149C91.7279 29.149 92.2566 29.2713 92.7274 29.5121Z" fill="#747373"/>
</svg>
