<svg width="189" height="68" viewBox="0 0 189 68" fill="none" xmlns="http://www.w3.org/2000/svg">
<path fill-rule="evenodd" clip-rule="evenodd" d="M40.0859 67.5233H56.0828V19.8926H40.0859V67.5233Z" fill="white"/>
<path fill-rule="evenodd" clip-rule="evenodd" d="M40.2347 7.96367C40.2347 3.56336 43.8175 0 48.2343 0C52.6511 0 56.2316 3.56336 56.2316 7.96367C56.2316 12.3571 52.6511 15.9228 48.2343 15.9228C43.8175 15.9228 40.2347 12.3571 40.2347 7.96367Z" fill="white"/>
<path fill-rule="evenodd" clip-rule="evenodd" d="M64.0801 67.5233H80.0769V19.8926H64.0801V67.5233Z" fill="white"/>
<path fill-rule="evenodd" clip-rule="evenodd" d="M64.0796 7.96367C64.0796 3.56336 67.6624 0 72.0769 0C76.4937 0 80.0765 3.56336 80.0765 7.96367C80.0765 12.3571 76.4937 15.9228 72.0769 15.9228C67.6624 15.9228 64.0796 12.3571 64.0796 7.96367Z" fill="white"/>
<path fill-rule="evenodd" clip-rule="evenodd" d="M16.2462 0.000732422H32.2407V15.9166H16.2462V0.000732422Z" fill="white"/>
<path fill-rule="evenodd" clip-rule="evenodd" d="M2.49065 15.9177H16.2457C16.2457 15.9177 15.8724 17.0528 15.8724 18.6556C15.8724 20.6482 16.5521 22.8106 18.5566 24.8238C23.9849 30.2743 26.4018 32.0147 30.1943 36.7728C32.2956 39.4143 33.5904 43.2322 33.5904 47.7518C33.5904 54.1378 30.662 59.3155 27.2981 62.3354C23.8997 65.392 19.1165 67.38 14.7343 67.38C11.1722 67.38 7.11253 66.6004 4.62879 65.3278C1.50223 63.7296 0 62.7069 0 62.7069V49.1299C0 49.1299 1.44463 50.3658 4.11499 51.8677C6.05268 52.9569 8.08714 53.8122 11.057 54.0094C13.6191 54.1814 16.1466 53.6838 17.7779 51.8769C19.1557 50.3429 19.3354 48.4924 19.3354 47.0662C19.3354 45.578 18.87 44.342 18.188 43.1313C14.96 37.385 6.84066 33.4433 3.74635 27.8369C1.20731 23.2416 2.49065 15.9177 2.49065 15.9177Z" fill="white"/>
<path fill-rule="evenodd" clip-rule="evenodd" d="M105.329 16.9209V19.4524C103.604 18.6819 102.226 18.2921 101.203 18.2921C100.622 18.2921 100.154 18.3907 99.8088 18.5856C99.4632 18.7805 99.295 19.0374 99.295 19.3584C99.295 19.6083 99.4171 19.8422 99.666 20.0646C99.9148 20.2871 100.523 20.576 101.484 20.9268C102.442 21.2799 103.216 21.6078 103.792 21.9082C104.371 22.2109 104.868 22.6374 105.288 23.1923C105.712 23.7426 105.917 24.4328 105.917 25.2767C105.917 26.4759 105.461 27.4321 104.544 28.1407C103.629 28.8515 102.417 29.2046 100.924 29.2046C99.3065 29.2046 97.7444 28.7896 96.2284 27.9572V25.1643C97.097 25.7467 97.8665 26.1687 98.537 26.4324C99.2098 26.7029 99.9217 26.8336 100.673 26.8336C101.945 26.8336 102.583 26.4324 102.583 25.6413C102.583 25.3661 102.454 25.1116 102.196 24.8685C101.945 24.63 101.329 24.3365 100.362 23.988C99.3872 23.6463 98.6176 23.323 98.0485 23.0249C97.4818 22.7268 96.9887 22.3049 96.574 21.7523C96.1639 21.2043 95.9588 20.5003 95.9588 19.6404C95.9588 18.5237 96.4058 17.6294 97.3067 16.9438C98.2098 16.2605 99.4148 15.9211 100.924 15.9211C102.316 15.9211 103.786 16.2536 105.329 16.9209Z" fill="white"/>
<path fill-rule="evenodd" clip-rule="evenodd" d="M110.09 23.6521H113.91C113.763 22.3794 113.125 21.7443 112.003 21.7443C110.865 21.7443 110.229 22.3794 110.09 23.6521ZM116.194 26.3234V28.0569C115.136 28.8274 113.832 29.2058 112.27 29.2058C110.726 29.2058 109.489 28.793 108.563 27.9698C107.637 27.142 107.171 26.0483 107.171 24.6885C107.171 23.3494 107.607 22.2533 108.478 21.3934C109.351 20.5335 110.457 20.1002 111.805 20.1002C113.162 20.1002 114.268 20.5542 115.136 21.4599C116 22.3657 116.41 23.5787 116.353 25.1012H110.033C110.09 25.8969 110.374 26.5046 110.883 26.9357C111.39 27.3622 112.079 27.5777 112.934 27.5777C113.973 27.5777 115.06 27.1581 116.194 26.3234Z" fill="white"/>
<path fill-rule="evenodd" clip-rule="evenodd" d="M120.763 20.2866V22.7929H120.8C121.602 20.9998 122.535 20.1009 123.604 20.1009C124.113 20.1009 124.724 20.3669 125.441 20.9012L124.678 23.3363C123.994 22.9053 123.445 22.692 123.037 22.692C122.399 22.692 121.858 23.0841 121.42 23.8706C120.982 24.664 120.763 25.1226 120.763 25.2533V29.0414H117.992V20.2866H120.763Z" fill="white"/>
<path fill-rule="evenodd" clip-rule="evenodd" d="M129.804 29.2056L125.737 20.2857H128.705L130.566 25.1102L132.465 20.2857H135.4L131.352 29.2056H129.804Z" fill="white"/>
<path fill-rule="evenodd" clip-rule="evenodd" d="M139.155 29.0418H136.383V20.2871H139.155V29.0418ZM136.235 17.4391C136.235 17.0195 136.383 16.6641 136.682 16.3637C136.982 16.0679 137.339 15.9211 137.754 15.9211C138.175 15.9211 138.537 16.0679 138.837 16.3637C139.136 16.6641 139.284 17.0195 139.284 17.4391C139.284 17.8519 139.136 18.2119 138.837 18.5123C138.537 18.8126 138.175 18.964 137.754 18.964C137.339 18.964 136.982 18.8126 136.682 18.5123C136.383 18.2119 136.235 17.8519 136.235 17.4391Z" fill="white"/>
<path fill-rule="evenodd" clip-rule="evenodd" d="M148.781 26.6484V28.625C147.702 29.0125 146.712 29.2051 145.809 29.2051C144.265 29.2051 143.03 28.7947 142.101 27.9692C141.175 27.1437 140.712 26.0476 140.712 24.6901C140.712 23.3556 141.182 22.2618 142.115 21.3974C143.053 20.5375 144.242 20.1018 145.686 20.1018C146.62 20.1018 147.608 20.2921 148.652 20.6774V22.725C147.889 22.3375 147.138 22.1426 146.396 22.1426C145.571 22.1426 144.91 22.3719 144.412 22.8305C143.915 23.2845 143.668 23.9013 143.668 24.6695C143.668 25.4445 143.91 26.066 144.392 26.5406C144.88 27.013 145.516 27.2537 146.304 27.2537C146.887 27.2537 147.714 27.052 148.781 26.6484Z" fill="white"/>
<path fill-rule="evenodd" clip-rule="evenodd" d="M153.2 29.0418H150.43V20.2871H153.2V29.0418ZM150.281 17.4391C150.281 17.0195 150.433 16.6641 150.728 16.3637C151.027 16.0679 151.384 15.9211 151.801 15.9211C152.223 15.9211 152.582 16.0679 152.882 16.3637C153.181 16.6641 153.329 17.0195 153.329 17.4391C153.329 17.8519 153.181 18.2119 152.882 18.5123C152.582 18.8126 152.223 18.964 151.801 18.964C151.384 18.964 151.027 18.8126 150.728 18.5123C150.433 18.2119 150.281 17.8519 150.281 17.4391Z" fill="white"/>
<path fill-rule="evenodd" clip-rule="evenodd" d="M159.708 27.5777C161.03 27.5777 161.692 26.5802 161.692 24.5945C161.692 22.6936 161.03 21.7443 159.708 21.7443C159.074 21.7443 158.579 21.9919 158.222 22.4964C157.862 22.9962 157.689 23.7117 157.689 24.6541C157.689 26.6009 158.362 27.5777 159.708 27.5777ZM159.708 20.1002C161.09 20.1002 162.254 20.5037 163.215 21.3086C164.173 22.1111 164.657 23.2324 164.657 24.6679C164.657 26.1102 164.168 27.2292 163.196 28.018C162.217 28.8159 161.053 29.2058 159.708 29.2058C158.249 29.2058 157.054 28.7884 156.125 27.94C155.201 27.0939 154.731 25.9978 154.731 24.6541C154.731 23.2737 155.206 22.1776 156.153 21.3453C157.1 20.5175 158.284 20.1002 159.708 20.1002Z" fill="white"/>
<path fill-rule="evenodd" clip-rule="evenodd" d="M176.081 26.6997V22.6227C175.593 22.2879 175.088 22.1251 174.575 22.1251C173.895 22.1251 173.367 22.359 172.987 22.8291C172.614 23.3015 172.423 23.9618 172.423 24.8103C172.423 25.5922 172.609 26.2228 172.985 26.6951C173.358 27.1675 173.86 27.406 174.485 27.406C175.033 27.406 175.568 27.1698 176.081 26.6997ZM178.782 16.4086V29.0409H176.081V28.353C175.39 28.9194 174.598 29.206 173.701 29.206C172.558 29.206 171.605 28.7795 170.835 27.9357C170.07 27.0918 169.688 26.0302 169.688 24.7575C169.688 23.4551 170.077 22.3934 170.854 21.5656C171.632 20.7402 172.628 20.3251 173.849 20.3251C174.602 20.3251 175.351 20.5063 176.081 20.864V16.4086H178.782Z" fill="white"/>
<path fill-rule="evenodd" clip-rule="evenodd" d="M182.846 23.7864H186.567C186.424 22.5436 185.804 21.9268 184.708 21.9268C183.602 21.9268 182.982 22.5436 182.846 23.7864ZM188.797 26.3936V28.0836C187.767 28.8288 186.493 29.2049 184.973 29.2049C183.464 29.2049 182.259 28.8013 181.358 27.9941C180.452 27.1893 180.001 26.1253 180.001 24.7954C180.001 23.4929 180.429 22.4244 181.272 21.5806C182.123 20.7436 183.203 20.324 184.519 20.324C185.839 20.324 186.922 20.7642 187.765 21.6493C188.611 22.5322 189.007 23.7131 188.949 25.1966H182.791C182.846 25.9717 183.123 26.5702 183.62 26.9875C184.113 27.4048 184.781 27.6135 185.618 27.6135C186.627 27.6135 187.691 27.2076 188.797 26.3936Z" fill="white"/>
<path fill-rule="evenodd" clip-rule="evenodd" d="M99.2787 45.9093H95.9586V32.6441H99.2787V45.9093Z" fill="white"/>
<path fill-rule="evenodd" clip-rule="evenodd" d="M104.965 36.9468V38.0933C105.926 37.2013 106.972 36.7565 108.096 36.7565C109.647 36.7565 110.725 37.3894 111.345 38.6643C112.432 37.3894 113.619 36.7565 114.897 36.7565C115.934 36.7565 116.78 37.0706 117.436 37.6989C118.091 38.3226 118.418 39.1412 118.418 40.1502V45.908H115.586V40.6501C115.586 40.0218 115.441 39.5265 115.146 39.1756C114.854 38.8202 114.444 38.6482 113.921 38.6482C113.091 38.6482 112.347 39.155 111.683 40.1685V45.908H108.859V40.5973C108.859 39.9667 108.7 39.4852 108.386 39.1504C108.073 38.8133 107.654 38.6482 107.133 38.6482C106.386 38.6482 105.663 39.0587 104.965 39.8911V45.908H102.129V36.9468H104.965Z" fill="white"/>
<path fill-rule="evenodd" clip-rule="evenodd" d="M123.579 39.4817V43.6023C124.111 43.9967 124.658 44.1939 125.22 44.1939C125.906 44.1939 126.452 43.9463 126.856 43.4556C127.256 42.9671 127.462 42.3022 127.462 41.4652C127.462 40.6122 127.275 39.9472 126.904 39.4749C126.533 38.9956 126.008 38.7617 125.335 38.7617C124.766 38.7617 124.183 39.0025 123.579 39.4817ZM123.579 36.948V37.7253C124.333 37.0809 125.192 36.7576 126.153 36.7576C127.326 36.7576 128.314 37.1979 129.123 38.0784C129.931 38.9566 130.332 40.0412 130.332 41.3185C130.332 42.7585 129.927 43.9119 129.116 44.7809C128.307 45.6477 127.233 46.0834 125.895 46.0834C125.07 46.0834 124.298 45.877 123.579 45.4642V50.3874H120.743V36.948H123.579Z" fill="white"/>
<path fill-rule="evenodd" clip-rule="evenodd" d="M138.367 45.9084V44.6266C137.533 45.5965 136.563 46.0827 135.455 46.0827C134.478 46.0827 133.681 45.78 133.07 45.1792C132.46 44.5785 132.156 43.7461 132.156 42.6844V36.9473H134.992V42.4872C134.992 43.6223 135.464 44.1932 136.411 44.1932C136.948 44.1932 137.402 43.9846 137.78 43.5672C138.16 43.1591 138.349 42.8495 138.349 42.6546V36.9473H141.201V45.9084H138.367Z" fill="white"/>
<path fill-rule="evenodd" clip-rule="evenodd" d="M146.064 40.393H149.974C149.824 39.0928 149.17 38.4348 148.02 38.4348C146.854 38.4348 146.202 39.0928 146.064 40.393ZM152.31 43.1286V44.9057C151.232 45.6899 149.891 46.082 148.299 46.082C146.714 46.082 145.446 45.6601 144.497 44.8139C143.55 43.9678 143.078 42.8442 143.078 41.4524C143.078 40.0834 143.52 38.9576 144.412 38.077C145.301 37.1965 146.437 36.7563 147.822 36.7563C149.206 36.7563 150.342 37.2194 151.229 38.1481C152.119 39.0745 152.531 40.3196 152.474 41.8743H146.006C146.064 42.6883 146.352 43.3143 146.872 43.7546C147.396 44.1925 148.096 44.4104 148.971 44.4104C150.038 44.4104 151.151 43.9816 152.31 43.1286Z" fill="white"/>
<path fill-rule="evenodd" clip-rule="evenodd" d="M160.579 37.4215V39.4256C159.5 38.7675 158.498 38.4327 157.577 38.4327C156.897 38.4327 156.554 38.6689 156.554 39.1298C156.554 39.2513 156.627 39.3683 156.77 39.4852C156.918 39.6044 157.461 39.8521 158.418 40.2304C159.374 40.6088 160.044 41.0422 160.438 41.5375C160.832 42.0305 161.033 42.5739 161.033 43.1655C161.033 44.0965 160.715 44.8165 160.076 45.3232C159.438 45.8277 158.533 46.0822 157.358 46.0822C156.15 46.0822 155.072 45.8667 154.132 45.4287V43.443C155.291 43.9497 156.259 44.2019 157.042 44.2019C157.957 44.2019 158.418 43.9795 158.418 43.5393C158.418 43.3673 158.332 43.2068 158.162 43.0554C157.991 42.9041 157.422 42.6381 156.459 42.2643C155.491 41.886 154.832 41.4755 154.475 41.0238C154.118 40.5767 153.943 40.0722 153.943 39.5242C153.943 38.7056 154.284 38.0406 154.966 37.527C155.648 37.011 156.551 36.7565 157.671 36.7565C158.745 36.7565 159.717 36.9812 160.579 37.4215Z" fill="white"/>
<path fill-rule="evenodd" clip-rule="evenodd" d="M169.252 36.9468V38.8752H165.974V42.5693C165.974 43.0118 166.094 43.3604 166.338 43.6172C166.582 43.874 166.921 44.0001 167.356 44.0001C167.939 44.0001 168.575 43.8304 169.252 43.4796V45.5227C168.349 45.8942 167.476 46.0822 166.633 46.0822C165.525 46.0822 164.665 45.7979 164.052 45.2269C163.444 44.6582 163.138 43.8236 163.138 42.7206V38.8752H161.85V38.3226L165.617 34.1287H165.974V36.9468H169.252Z" fill="white"/>
<path fill-rule="evenodd" clip-rule="evenodd" d="M175.363 44.4104C176.717 44.4104 177.397 43.3946 177.397 41.3561C177.397 39.4116 176.717 38.4348 175.363 38.4348C174.715 38.4348 174.208 38.6962 173.84 39.2075C173.473 39.7234 173.291 40.4572 173.291 41.4157C173.291 43.4129 173.982 44.4104 175.363 44.4104ZM175.363 36.7563C176.775 36.7563 177.973 37.1713 178.957 37.9945C179.938 38.8154 180.431 39.9642 180.431 41.434C180.431 42.9107 179.931 44.055 178.934 44.8667C177.932 45.6784 176.745 46.082 175.363 46.082C173.867 46.082 172.644 45.6509 171.695 44.7864C170.745 43.9174 170.268 42.7984 170.268 41.4157C170.268 40.0101 170.754 38.8796 171.722 38.0289C172.69 37.1828 173.906 36.7563 175.363 36.7563Z" fill="white"/>
<path fill-rule="evenodd" clip-rule="evenodd" d="M188.46 37.4215V39.4256C187.377 38.7675 186.379 38.4327 185.453 38.4327C184.773 38.4327 184.432 38.6689 184.432 39.1298C184.432 39.2513 184.504 39.3683 184.647 39.4852C184.792 39.6044 185.34 39.8521 186.294 40.2304C187.25 40.6088 187.925 41.0422 188.317 41.5375C188.713 42.0305 188.907 42.5739 188.907 43.1655C188.907 44.0965 188.593 44.8165 187.955 45.3232C187.319 45.8277 186.414 46.0822 185.236 46.0822C184.027 46.0822 182.953 45.8667 182.008 45.4287V43.443C183.167 43.9497 184.135 44.2019 184.921 44.2019C185.835 44.2019 186.294 43.9795 186.294 43.5393C186.294 43.3673 186.209 43.2068 186.041 43.0554C185.87 42.9041 185.301 42.6381 184.336 42.2643C183.372 41.886 182.709 41.4755 182.354 41.0238C181.997 40.5767 181.82 40.0722 181.82 39.5242C181.82 38.7056 182.161 38.0406 182.845 37.527C183.529 37.011 184.43 36.7565 185.55 36.7565C186.626 36.7565 187.596 36.9812 188.46 37.4215Z" fill="white"/>
<path fill-rule="evenodd" clip-rule="evenodd" d="M99.2787 62.7286H95.9586V49.4612H99.2787V62.7286Z" fill="white"/>
<path fill-rule="evenodd" clip-rule="evenodd" d="M104.925 53.7638V55.0364C105.762 54.0596 106.736 53.5712 107.854 53.5712C108.794 53.5712 109.575 53.8693 110.199 54.4678C110.826 55.0617 111.139 55.9147 111.139 57.0245V62.7272H108.303V57.263C108.303 56.0614 107.838 55.4629 106.9 55.4629C106.236 55.4629 105.577 55.9559 104.925 56.9442V62.7272H102.094V53.7638H104.925Z" fill="white"/>
<path fill-rule="evenodd" clip-rule="evenodd" d="M119.844 53.7638V55.6923H116.563V59.384C116.563 59.8289 116.683 60.1797 116.932 60.4365C117.174 60.6911 117.513 60.8195 117.946 60.8195C118.531 60.8195 119.165 60.6452 119.844 60.2989V62.3397C118.943 62.7135 118.068 62.9015 117.22 62.9015C116.112 62.9015 115.255 62.6126 114.646 62.0462C114.036 61.473 113.727 60.636 113.727 59.54V55.6923H112.439V55.1396L116.208 50.9457H116.563V53.7638H119.844Z" fill="white"/>
<path fill-rule="evenodd" clip-rule="evenodd" d="M123.858 57.2123H127.771C127.618 55.9076 126.966 55.2541 125.814 55.2541C124.651 55.2541 123.999 55.9076 123.858 57.2123ZM130.109 59.9433V61.7204C129.026 62.5092 127.688 62.9013 126.091 62.9013C124.506 62.9013 123.241 62.4771 122.292 61.631C121.347 60.7848 120.87 59.6635 120.87 58.2694C120.87 56.9005 121.317 55.7723 122.206 54.8941C123.1 54.0135 124.234 53.571 125.614 53.571C127.001 53.571 128.137 54.0388 129.024 54.9651C129.913 55.8915 130.328 57.1343 130.27 58.6936H123.803C123.858 59.5076 124.146 60.1313 124.672 60.5716C125.19 61.0095 125.89 61.2274 126.771 61.2274C127.833 61.2274 128.946 60.7986 130.109 59.9433Z" fill="white"/>
<path fill-rule="evenodd" clip-rule="evenodd" d="M135.082 53.7638V56.3274H135.117C135.939 54.4907 136.896 53.5712 137.99 53.5712C138.513 53.5712 139.137 53.8441 139.868 54.3852L139.087 56.8869C138.386 56.4466 137.829 56.2219 137.409 56.2219C136.75 56.2219 136.202 56.6278 135.75 57.4372C135.306 58.2444 135.082 58.7144 135.082 58.8497V62.7272H132.244V53.7638H135.082Z" fill="white"/>
<path fill-rule="evenodd" clip-rule="evenodd" d="M143.906 53.7638V55.0364C144.738 54.0596 145.715 53.5712 146.834 53.5712C147.77 53.5712 148.553 53.8693 149.18 54.4678C149.806 55.0617 150.117 55.9147 150.117 57.0245V62.7272H147.284V57.263C147.284 56.0614 146.818 55.4629 145.88 55.4629C145.215 55.4629 144.553 55.9559 143.906 56.9442V62.7272H141.072V53.7638H143.906Z" fill="white"/>
<path fill-rule="evenodd" clip-rule="evenodd" d="M157.055 61.2274C158.412 61.2274 159.087 60.2139 159.087 58.1754C159.087 56.2263 158.412 55.2564 157.055 55.2564C156.405 55.2564 155.901 55.5109 155.532 56.0245C155.166 56.5382 154.986 57.2742 154.986 58.2304C154.986 60.2276 155.673 61.2274 157.055 61.2274ZM157.055 53.571C158.468 53.571 159.661 53.9837 160.649 54.8092C161.629 55.6324 162.124 56.7812 162.124 58.251C162.124 59.7277 161.624 60.8743 160.624 61.6837C159.622 62.4954 158.435 62.9013 157.055 62.9013C155.56 62.9013 154.336 62.4679 153.387 61.6011C152.436 60.7367 151.956 59.6154 151.956 58.2304C151.956 56.8248 152.447 55.6966 153.413 54.8505C154.387 53.9998 155.601 53.571 157.055 53.571Z" fill="white"/>
<path fill-rule="evenodd" clip-rule="evenodd" d="M170.15 54.2385V56.2426C169.07 55.5845 168.065 55.2543 167.144 55.2543C166.464 55.2543 166.123 55.4859 166.123 55.9468C166.123 56.0683 166.194 56.1875 166.339 56.3022C166.482 56.4191 167.031 56.6714 167.987 57.0451C168.938 57.4235 169.614 57.8591 170.008 58.3544C170.404 58.8497 170.6 59.3909 170.6 59.9825C170.6 60.9112 170.279 61.6335 169.646 62.1402C169.008 62.6447 168.102 62.9015 166.925 62.9015C165.717 62.9015 164.641 62.6837 163.701 62.2434V60.2577C164.86 60.769 165.828 61.0189 166.611 61.0189C167.526 61.0189 167.985 60.7988 167.985 60.3563C167.985 60.1866 167.899 60.0238 167.731 59.8724C167.563 59.7234 166.996 59.4574 166.024 59.079C165.063 58.7053 164.399 58.2925 164.045 57.8431C163.69 57.3937 163.51 56.8915 163.51 56.3412C163.51 55.5226 163.851 54.8599 164.535 54.3439C165.22 53.8303 166.121 53.5712 167.243 53.5712C168.316 53.5712 169.286 53.7959 170.15 54.2385Z" fill="white"/>
</svg>
